<svg width="24" height="24" viewBox="0 0 24 24" fill="none" xmlns="http://www.w3.org/2000/svg">
<path d="M7.9 20C9.80858 20.9791 12.0041 21.2442 14.0909 20.7478C16.1777 20.2513 18.0186 19.0258 19.2818 17.2922C20.545 15.5585 21.1474 13.4307 20.9806 11.2922C20.8137 9.15361 19.8886 7.14497 18.3718 5.62819C16.855 4.11142 14.8464 3.18625 12.7078 3.01942C10.5693 2.85258 8.44147 3.45505 6.70782 4.71825C4.97417 5.98145 3.74869 7.82231 3.25222 9.90911C2.75575 11.9959 3.02094 14.1914 4 16.1L2 22L7.9 20Z" stroke="black" stroke-width="2" stroke-linecap="round" stroke-linejoin="round"/>
<path d="M16.42 11.936C16.508 11.936 16.584 11.968 16.648 12.032C16.712 12.096 16.744 12.172 16.744 12.26V13.532C16.744 14.748 16.328 15.652 15.496 16.244C14.672 16.828 13.58 17.12 12.22 17.12C10.86 17.12 9.764 16.828 8.932 16.244C8.108 15.652 7.696 14.74 7.696 13.508V12.092C7.696 11.276 7.896 10.6 8.296 10.064C8.696 9.52 9.236 9.12 9.916 8.864C10.596 8.608 11.364 8.48 12.22 8.48C13.244 8.48 14.088 8.648 14.752 8.984C15.416 9.32 15.896 9.7 16.192 10.124C16.496 10.548 16.648 10.892 16.648 11.156C16.648 11.228 16.62 11.292 16.564 11.348C16.516 11.396 16.456 11.42 16.384 11.42H13.672C13.512 11.42 13.396 11.376 13.324 11.288C13.076 10.976 12.708 10.82 12.22 10.82C11.852 10.82 11.544 10.904 11.296 11.072C11.056 11.24 10.936 11.456 10.936 11.72V13.76C10.936 14.08 11.056 14.332 11.296 14.516C11.536 14.692 11.844 14.78 12.22 14.78C12.716 14.78 13.08 14.696 13.312 14.528C13.552 14.352 13.676 14.148 13.684 13.916H12.94C12.852 13.916 12.776 13.884 12.712 13.82C12.648 13.756 12.616 13.68 12.616 13.592V12.26C12.616 12.172 12.648 12.096 12.712 12.032C12.776 11.968 12.852 11.936 12.94 11.936H16.42Z" fill="black"/>
</svg>
