<?xml version="1.0" encoding="iso-8859-1"?>
<!-- Uploaded to: SVG Repo, www.svgrepo.com, Generator: SVG Repo Mixer Tools -->
<svg fill="#000000" height="800px" width="800px" version="1.1" id="Layer_1" xmlns="http://www.w3.org/2000/svg" xmlns:xlink="http://www.w3.org/1999/xlink" 
	 viewBox="0 0 512 512" xml:space="preserve">
<g>
	<g>
		<path d="M483.923,336.749c-4.304-16.066-14.609-29.494-29.014-37.81l-136.639-78.89V62.27C318.27,27.934,290.336,0,256,0
			s-62.27,27.934-62.27,62.27v157.779L57.091,298.939c-14.405,8.317-24.709,21.745-29.014,37.811
			c-4.305,16.066-2.096,32.847,6.22,47.251c11.52,19.954,32.493,31.121,54.033,31.121c10.557,0,21.249-2.682,31.031-8.33
			l74.369-42.936V512h41.513V339.888L256,327.904l20.757,11.984V512h41.513V363.855l74.369,42.937
			c9.783,5.649,20.473,8.332,31.031,8.332c21.536,0,42.514-11.17,54.033-31.123C486.019,369.596,488.228,352.815,483.923,336.749z
			 M98.604,370.84c-9.909,5.723-22.63,2.316-28.355-7.597c-2.772-4.802-3.508-10.395-2.073-15.75
			c1.435-5.355,4.87-9.83,9.671-12.604l113.847-65.73l20.757,35.951L98.604,370.84z M256,276.757
			c-11.445,0-20.757-9.312-20.757-20.757s9.312-20.757,20.757-20.757c11.445,0,20.757,9.312,20.757,20.757
			S267.445,276.757,256,276.757z M276.757,193.73h-41.514V62.27c0-11.445,9.312-20.757,20.757-20.757
			c11.445,0,20.757,9.312,20.757,20.757V193.73z M441.751,363.243c-5.723,9.912-18.439,13.32-28.355,7.597l-113.847-65.73
			l20.757-35.951l113.847,65.73c4.803,2.773,8.236,7.248,9.671,12.604C445.259,352.848,444.523,358.442,441.751,363.243z"/>
	</g>
</g>
</svg>